<svg width="1512" height="982" viewBox="0 0 1512 982" fill="none" xmlns="http://www.w3.org/2000/svg">
<g clip-path="url(#clip0_6_2)">
<rect width="1512" height="982" fill="white"/>
<g clip-path="url(#clip1_6_2)">
<rect width="1728" height="1117" transform="translate(-88 -82)" fill="white"/>
<g opacity="0.5" filter="url(#filter0_f_6_2)">
<path fill-rule="evenodd" clip-rule="evenodd" d="M437.292 119.055C532.916 136.333 521.428 272.161 591.194 334.426C662.989 398.501 818.578 384.905 836.352 475.205C853.784 563.765 728.756 614.563 658.785 677.812C589.534 740.408 534.601 833.117 437.292 835.924C338.867 838.764 262.743 761.452 201.373 691.008C147.689 629.386 121.881 553.993 123.037 475.205C124.175 397.633 154.353 325.488 207.621 265.118C268.5 196.122 342.198 101.872 437.292 119.055Z" fill="#41228E"/>
</g>
<g opacity="0.5" filter="url(#filter1_f_6_2)">
<path fill-rule="evenodd" clip-rule="evenodd" d="M1113.29 171.055C1208.92 188.333 1197.43 324.161 1267.19 386.426C1338.99 450.501 1494.58 436.905 1512.35 527.205C1529.78 615.765 1404.76 666.563 1334.78 729.812C1265.53 792.408 1210.6 885.117 1113.29 887.924C1014.87 890.764 938.743 813.452 877.373 743.008C823.689 681.386 797.881 605.993 799.037 527.205C800.175 449.633 830.353 377.488 883.621 317.118C944.5 248.122 1018.2 153.872 1113.29 171.055Z" fill="#41228E"/>
</g>
<g opacity="0.5" filter="url(#filter2_f_6_2)">
<path fill-rule="evenodd" clip-rule="evenodd" d="M704.413 258.626C780.995 254.99 867.98 265.875 915.023 326.413C959.821 384.062 916.191 464.158 920.753 537.023C925.945 619.954 1002.22 717.321 943.155 775.765C884.035 834.264 785.487 769.644 704.413 751.089C649.35 738.487 602.582 716.643 554.597 686.839C482.248 641.903 370.084 621.563 359.756 537.023C349.451 452.678 446.796 398.901 512.898 345.508C569.588 299.716 631.621 262.083 704.413 258.626Z" fill="#F54EA2"/>
</g>
<g opacity="0.5" filter="url(#filter3_f_6_2)">
<path fill-rule="evenodd" clip-rule="evenodd" d="M1179.76 472.011C1256.56 470.819 1294.9 563.275 1339.09 626.091C1373.12 674.458 1391.8 726.884 1400.25 785.414C1410.81 858.546 1439.19 940.952 1392.87 998.521C1344.72 1058.36 1256.23 1052.2 1179.76 1059.45C1090.67 1067.9 981.218 1110.28 922.006 1043.17C862.8 976.067 916.229 872.22 937.984 785.414C952.931 725.775 987.757 679.642 1025.31 630.962C1072.22 570.154 1102.97 473.203 1179.76 472.011Z" fill="#F54EA2"/>
</g>
<g opacity="0.5" filter="url(#filter4_f_6_2)">
<path fill-rule="evenodd" clip-rule="evenodd" d="M636.314 775.76C701.389 785.319 764.707 793.642 817.203 833.27C879.614 880.383 957.049 936.117 952.121 1014.16C947.245 1091.39 858.451 1128.25 795.717 1173.56C746.958 1208.78 695.249 1230.24 636.314 1242.24C554.379 1258.93 461.674 1306.05 395.352 1255.12C327.354 1202.91 339.66 1099.89 339.267 1014.16C338.873 927.851 325.826 825.005 393.138 770.983C458.869 718.23 552.926 763.512 636.314 775.76Z" fill="#F6A2D4"/>
</g>
<g opacity="0.5" filter="url(#filter5_f_6_2)">
<path fill-rule="evenodd" clip-rule="evenodd" d="M710.314 146.76C775.389 156.319 838.707 164.642 891.203 204.27C953.614 251.383 1031.05 307.117 1026.12 385.159C1021.24 462.39 932.451 499.254 869.717 544.562C820.958 579.777 769.249 601.238 710.314 613.243C628.379 629.934 535.674 677.045 469.352 626.12C401.354 573.909 413.66 470.888 413.267 385.159C412.873 298.851 399.826 196.005 467.138 141.983C532.869 89.2296 626.926 134.512 710.314 146.76Z" fill="#F6A2D4"/>
</g>
<g opacity="0.5" filter="url(#filter6_f_6_2)">
<path fill-rule="evenodd" clip-rule="evenodd" d="M1092.09 -2.12346C1167.5 3.62259 1253.57 -46.9833 1310.26 3.06892C1367.64 53.7392 1353.17 145.111 1345.05 221.232C1337.98 287.431 1317.65 352.768 1268.16 397.302C1220.91 439.828 1155.61 446.057 1092.09 448.862C1024.4 451.852 946.426 462.7 899.754 413.572C853.495 364.879 885.051 287.761 875.84 221.232C863.629 133.028 775.998 31.0482 837.937 -32.925C899.647 -96.6613 1003.64 -8.86461 1092.09 -2.12346Z" fill="#A94CAF"/>
</g>
<g opacity="0.5" filter="url(#filter7_f_6_2)">
<path fill-rule="evenodd" clip-rule="evenodd" d="M630.971 -10.448C716.28 -9.71324 822.662 -75.4225 877.166 -9.79076C932.428 56.7533 844.21 150.3 835.97 236.405C829.262 306.497 881.408 387.387 834.161 439.595C786.606 492.145 701.757 466.426 630.971 462.934C565.587 459.708 497.541 461.956 446.885 420.491C391.624 375.256 365.017 307 354.232 236.405C341.053 150.135 315.372 44.0241 380.498 -14.0684C445.275 -71.8503 544.17 -11.1956 630.971 -10.448Z" fill="#B145AD"/>
</g>
</g>
<rect x="-127.5" y="-81.5" width="1767" height="3430" rx="4.5" stroke="#9747FF" stroke-dasharray="10 5"/>
</g>
<defs>
<filter id="filter0_f_6_2" x="-277" y="-283" width="1515" height="1519" filterUnits="userSpaceOnUse" color-interpolation-filters="sRGB">
<feFlood flood-opacity="0" result="BackgroundImageFix"/>
<feBlend mode="normal" in="SourceGraphic" in2="BackgroundImageFix" result="shape"/>
<feGaussianBlur stdDeviation="200" result="effect1_foregroundBlur_6_2"/>
</filter>
<filter id="filter1_f_6_2" x="399" y="-231" width="1515" height="1519" filterUnits="userSpaceOnUse" color-interpolation-filters="sRGB">
<feFlood flood-opacity="0" result="BackgroundImageFix"/>
<feBlend mode="normal" in="SourceGraphic" in2="BackgroundImageFix" result="shape"/>
<feGaussianBlur stdDeviation="200" result="effect1_foregroundBlur_6_2"/>
</filter>
<filter id="filter2_f_6_2" x="-41" y="-142" width="1406.47" height="1341.74" filterUnits="userSpaceOnUse" color-interpolation-filters="sRGB">
<feFlood flood-opacity="0" result="BackgroundImageFix"/>
<feBlend mode="normal" in="SourceGraphic" in2="BackgroundImageFix" result="shape"/>
<feGaussianBlur stdDeviation="200" result="effect1_foregroundBlur_6_2"/>
</filter>
<filter id="filter3_f_6_2" x="495" y="72" width="1323.56" height="1408.42" filterUnits="userSpaceOnUse" color-interpolation-filters="sRGB">
<feFlood flood-opacity="0" result="BackgroundImageFix"/>
<feBlend mode="normal" in="SourceGraphic" in2="BackgroundImageFix" result="shape"/>
<feGaussianBlur stdDeviation="200" result="effect1_foregroundBlur_6_2"/>
</filter>
<filter id="filter4_f_6_2" x="-62" y="346" width="1414.34" height="1332.12" filterUnits="userSpaceOnUse" color-interpolation-filters="sRGB">
<feFlood flood-opacity="0" result="BackgroundImageFix"/>
<feBlend mode="normal" in="SourceGraphic" in2="BackgroundImageFix" result="shape"/>
<feGaussianBlur stdDeviation="200" result="effect1_foregroundBlur_6_2"/>
</filter>
<filter id="filter5_f_6_2" x="12" y="-283" width="1414.34" height="1332.12" filterUnits="userSpaceOnUse" color-interpolation-filters="sRGB">
<feFlood flood-opacity="0" result="BackgroundImageFix"/>
<feBlend mode="normal" in="SourceGraphic" in2="BackgroundImageFix" result="shape"/>
<feGaussianBlur stdDeviation="200" result="effect1_foregroundBlur_6_2"/>
</filter>
<filter id="filter6_f_6_2" x="416" y="-456" width="1336.85" height="1307.98" filterUnits="userSpaceOnUse" color-interpolation-filters="sRGB">
<feFlood flood-opacity="0" result="BackgroundImageFix"/>
<feBlend mode="normal" in="SourceGraphic" in2="BackgroundImageFix" result="shape"/>
<feGaussianBlur stdDeviation="200" result="effect1_foregroundBlur_6_2"/>
</filter>
<filter id="filter7_f_6_2" x="-62" y="-439" width="1357.25" height="1311.29" filterUnits="userSpaceOnUse" color-interpolation-filters="sRGB">
<feFlood flood-opacity="0" result="BackgroundImageFix"/>
<feBlend mode="normal" in="SourceGraphic" in2="BackgroundImageFix" result="shape"/>
<feGaussianBlur stdDeviation="200" result="effect1_foregroundBlur_6_2"/>
</filter>
<clipPath id="clip0_6_2">
<rect width="1512" height="982" fill="white"/>
</clipPath>
<clipPath id="clip1_6_2">
<rect width="1728" height="1117" fill="white" transform="translate(-88 -82)"/>
</clipPath>
</defs>
</svg>
