<svg width="1728" height="1117" viewBox="0 0 1728 1117" fill="none" xmlns="http://www.w3.org/2000/svg">
<g clip-path="url(#clip0_1_51)">
<rect width="1728" height="1117" fill="white"/>
<g clip-path="url(#clip1_1_51)">
<rect width="1728" height="1117" fill="white"/>
<g opacity="0.5" filter="url(#filter0_f_1_51)">
<path fill-rule="evenodd" clip-rule="evenodd" d="M525.292 201.055C620.916 218.333 609.428 354.161 679.194 416.426C750.989 480.501 906.578 466.905 924.352 557.205C941.784 645.765 816.756 696.563 746.785 759.812C677.534 822.408 622.601 915.117 525.292 917.924C426.867 920.764 350.743 843.452 289.373 773.008C235.689 711.386 209.881 635.993 211.037 557.205C212.175 479.633 242.353 407.488 295.621 347.118C356.5 278.122 430.198 183.872 525.292 201.055Z" fill="#41228E"/>
</g>
<g opacity="0.5" filter="url(#filter1_f_1_51)">
<path fill-rule="evenodd" clip-rule="evenodd" d="M1201.29 253.055C1296.92 270.333 1285.43 406.161 1355.19 468.426C1426.99 532.501 1582.58 518.905 1600.35 609.205C1617.78 697.765 1492.76 748.563 1422.78 811.812C1353.53 874.408 1298.6 967.117 1201.29 969.924C1102.87 972.764 1026.74 895.452 965.373 825.008C911.689 763.386 885.881 687.993 887.037 609.205C888.175 531.633 918.353 459.488 971.621 399.118C1032.5 330.122 1106.2 235.872 1201.29 253.055Z" fill="#41228E"/>
</g>
<g opacity="0.5" filter="url(#filter2_f_1_51)">
<path fill-rule="evenodd" clip-rule="evenodd" d="M792.413 340.626C868.995 336.99 955.98 347.875 1003.02 408.413C1047.82 466.062 1004.19 546.158 1008.75 619.023C1013.94 701.954 1090.22 799.321 1031.16 857.765C972.035 916.264 873.487 851.644 792.413 833.089C737.35 820.487 690.582 798.643 642.597 768.839C570.248 723.903 458.084 703.563 447.756 619.023C437.451 534.678 534.796 480.901 600.898 427.508C657.588 381.716 719.621 344.083 792.413 340.626Z" fill="#F54EA2"/>
</g>
<g opacity="0.5" filter="url(#filter3_f_1_51)">
<path fill-rule="evenodd" clip-rule="evenodd" d="M1267.76 554.011C1344.56 552.819 1382.9 645.275 1427.09 708.091C1461.12 756.458 1479.8 808.884 1488.25 867.414C1498.81 940.546 1527.19 1022.95 1480.87 1080.52C1432.72 1140.36 1344.23 1134.2 1267.76 1141.45C1178.67 1149.9 1069.22 1192.28 1010.01 1125.17C950.8 1058.07 1004.23 954.22 1025.98 867.414C1040.93 807.775 1075.76 761.642 1113.31 712.962C1160.22 652.154 1190.97 555.203 1267.76 554.011Z" fill="#F54EA2"/>
</g>
<g opacity="0.5" filter="url(#filter4_f_1_51)">
<path fill-rule="evenodd" clip-rule="evenodd" d="M724.314 857.76C789.389 867.319 852.707 875.642 905.203 915.27C967.614 962.383 1045.05 1018.12 1040.12 1096.16C1035.24 1173.39 946.451 1210.25 883.717 1255.56C834.958 1290.78 783.249 1312.24 724.314 1324.24C642.379 1340.93 549.674 1388.05 483.352 1337.12C415.354 1284.91 427.66 1181.89 427.267 1096.16C426.873 1009.85 413.826 907.005 481.138 852.983C546.869 800.23 640.926 845.512 724.314 857.76Z" fill="#F6A2D4"/>
</g>
<g opacity="0.5" filter="url(#filter5_f_1_51)">
<path fill-rule="evenodd" clip-rule="evenodd" d="M798.314 228.76C863.389 238.319 926.707 246.642 979.203 286.27C1041.61 333.383 1119.05 389.117 1114.12 467.159C1109.24 544.39 1020.45 581.254 957.717 626.562C908.958 661.777 857.249 683.238 798.314 695.243C716.379 711.934 623.674 759.045 557.352 708.12C489.354 655.909 501.66 552.888 501.267 467.159C500.873 380.851 487.826 278.005 555.138 223.983C620.869 171.23 714.926 216.512 798.314 228.76Z" fill="#F6A2D4"/>
</g>
<g opacity="0.5" filter="url(#filter6_f_1_51)">
<path fill-rule="evenodd" clip-rule="evenodd" d="M1180.09 79.8765C1255.5 85.6226 1341.57 35.0167 1398.26 85.0689C1455.64 135.739 1441.17 227.111 1433.05 303.232C1425.98 369.431 1405.65 434.768 1356.16 479.302C1308.91 521.828 1243.61 528.057 1180.09 530.862C1112.4 533.852 1034.43 544.7 987.754 495.572C941.495 446.879 973.051 369.761 963.84 303.232C951.629 215.028 863.998 113.048 925.937 49.075C987.647 -14.6613 1091.64 73.1354 1180.09 79.8765Z" fill="#A94CAF"/>
</g>
<g opacity="0.5" filter="url(#filter7_f_1_51)">
<path fill-rule="evenodd" clip-rule="evenodd" d="M718.971 71.552C804.28 72.2868 910.662 6.57747 965.166 72.2092C1020.43 138.753 932.21 232.3 923.97 318.405C917.262 388.497 969.408 469.387 922.161 521.595C874.606 574.145 789.757 548.426 718.971 544.934C653.587 541.708 585.541 543.956 534.885 502.491C479.624 457.256 453.017 389 442.232 318.405C429.053 232.135 403.372 126.024 468.498 67.9316C533.275 10.1497 632.17 70.8044 718.971 71.552Z" fill="#B145AD"/>
</g>
</g>
<rect x="-39.5" y="0.5" width="1767" height="3430" rx="4.5" stroke="#9747FF" stroke-dasharray="10 5"/>
</g>
<defs>
<filter id="filter0_f_1_51" x="-189" y="-201" width="1515" height="1519" filterUnits="userSpaceOnUse" color-interpolation-filters="sRGB">
<feFlood flood-opacity="0" result="BackgroundImageFix"/>
<feBlend mode="normal" in="SourceGraphic" in2="BackgroundImageFix" result="shape"/>
<feGaussianBlur stdDeviation="200" result="effect1_foregroundBlur_1_51"/>
</filter>
<filter id="filter1_f_1_51" x="487" y="-149" width="1515" height="1519" filterUnits="userSpaceOnUse" color-interpolation-filters="sRGB">
<feFlood flood-opacity="0" result="BackgroundImageFix"/>
<feBlend mode="normal" in="SourceGraphic" in2="BackgroundImageFix" result="shape"/>
<feGaussianBlur stdDeviation="200" result="effect1_foregroundBlur_1_51"/>
</filter>
<filter id="filter2_f_1_51" x="47" y="-60" width="1406.47" height="1341.74" filterUnits="userSpaceOnUse" color-interpolation-filters="sRGB">
<feFlood flood-opacity="0" result="BackgroundImageFix"/>
<feBlend mode="normal" in="SourceGraphic" in2="BackgroundImageFix" result="shape"/>
<feGaussianBlur stdDeviation="200" result="effect1_foregroundBlur_1_51"/>
</filter>
<filter id="filter3_f_1_51" x="583" y="154" width="1323.56" height="1408.42" filterUnits="userSpaceOnUse" color-interpolation-filters="sRGB">
<feFlood flood-opacity="0" result="BackgroundImageFix"/>
<feBlend mode="normal" in="SourceGraphic" in2="BackgroundImageFix" result="shape"/>
<feGaussianBlur stdDeviation="200" result="effect1_foregroundBlur_1_51"/>
</filter>
<filter id="filter4_f_1_51" x="26" y="428" width="1414.34" height="1332.12" filterUnits="userSpaceOnUse" color-interpolation-filters="sRGB">
<feFlood flood-opacity="0" result="BackgroundImageFix"/>
<feBlend mode="normal" in="SourceGraphic" in2="BackgroundImageFix" result="shape"/>
<feGaussianBlur stdDeviation="200" result="effect1_foregroundBlur_1_51"/>
</filter>
<filter id="filter5_f_1_51" x="100" y="-201" width="1414.34" height="1332.12" filterUnits="userSpaceOnUse" color-interpolation-filters="sRGB">
<feFlood flood-opacity="0" result="BackgroundImageFix"/>
<feBlend mode="normal" in="SourceGraphic" in2="BackgroundImageFix" result="shape"/>
<feGaussianBlur stdDeviation="200" result="effect1_foregroundBlur_1_51"/>
</filter>
<filter id="filter6_f_1_51" x="504" y="-374" width="1336.85" height="1307.98" filterUnits="userSpaceOnUse" color-interpolation-filters="sRGB">
<feFlood flood-opacity="0" result="BackgroundImageFix"/>
<feBlend mode="normal" in="SourceGraphic" in2="BackgroundImageFix" result="shape"/>
<feGaussianBlur stdDeviation="200" result="effect1_foregroundBlur_1_51"/>
</filter>
<filter id="filter7_f_1_51" x="26" y="-357" width="1357.25" height="1311.29" filterUnits="userSpaceOnUse" color-interpolation-filters="sRGB">
<feFlood flood-opacity="0" result="BackgroundImageFix"/>
<feBlend mode="normal" in="SourceGraphic" in2="BackgroundImageFix" result="shape"/>
<feGaussianBlur stdDeviation="200" result="effect1_foregroundBlur_1_51"/>
</filter>
<clipPath id="clip0_1_51">
<rect width="1728" height="1117" fill="white"/>
</clipPath>
<clipPath id="clip1_1_51">
<rect width="1728" height="1117" fill="white"/>
</clipPath>
</defs>
</svg>
